<mxfile host="Electron" modified="2023-05-27T16:31:27.172Z" agent="Mozilla/5.0 (Macintosh; Intel Mac OS X 10_15_7) AppleWebKit/537.36 (KHTML, like Gecko) draw.io/21.2.1 Chrome/112.0.5615.87 Electron/24.1.2 Safari/537.36" etag="gHrhQmWXRANYGWTDnG20" version="21.2.1" type="device">
  <diagram name="Page-1" id="H1nZVYqxkzLZFgEqRADx">
    <mxGraphModel dx="4817" dy="8233" grid="1" gridSize="10" guides="1" tooltips="1" connect="1" arrows="1" fold="1" page="1" pageScale="1" pageWidth="850" pageHeight="1100" math="0" shadow="0">
      <root>
        <mxCell id="0" />
        <mxCell id="1" parent="0" />
        <mxCell id="AsBp8XiL8Dx4Y6rQVwFH-17942" value="R, W: 138, H: 93, ORDER: 20, GC: {39, 22, 27, 17, 5, 21, 29, 6, 15, 9, 20, 12, 26, 13, 2, 11, 44, 54, 14, 40} " style="text;html=1;strokeColor=none;fillColor=none;align=center;verticalAlign=middle;whiteSpace=wrap;rounded=0;fontSize=32;" parent="1" vertex="1">
          <mxGeometry x="1480" width="1380" height="30" as="geometry" />
        </mxCell>
        <mxCell id="AsBp8XiL8Dx4Y6rQVwFH-41168" value="R, W: 138, H: 112, ORDER: 22, GC: {25, 17, 15, 40, 2, 13, 8, 11, 30, 3, 27, 41, 29, 10, 1, 9, 33, 19, 57, 43, 5, 38} " style="text;html=1;strokeColor=none;fillColor=none;align=center;verticalAlign=middle;whiteSpace=wrap;rounded=0;fontSize=32;" parent="1" vertex="1">
          <mxGeometry x="1480" y="1010" width="1380" height="30" as="geometry" />
        </mxCell>
        <mxCell id="AsBp8XiL8Dx4Y6rQVwFH-42548" value="R, W: 138, H: 104, ORDER: 22, GC: {34, 29, 45, 13, 16, 30, 11, 19, 4, 7, 26, 8, 18, 3, 59, 9, 6, 1, 20, 15, 35, 44} " style="text;html=1;strokeColor=none;fillColor=none;align=center;verticalAlign=middle;whiteSpace=wrap;rounded=0;fontSize=32;" parent="1" vertex="1">
          <mxGeometry x="1490" y="2210" width="1380" height="30" as="geometry" />
        </mxCell>
        <mxCell id="AsBp8XiL8Dx4Y6rQVwFH-46325" value="R, W: 138, H: 128, ORDER: 24, GC: {36, 33, 30, 39, 21, 9, 3, 13, 17, 29, 10, 19, 4, 15, 6, 48, 5, 16, 11, 63, 27, 7, 41, 34} " style="text;html=1;strokeColor=none;fillColor=none;align=center;verticalAlign=middle;whiteSpace=wrap;rounded=0;fontSize=32;" parent="1" vertex="1">
          <mxGeometry x="1490" y="3330" width="1380" height="30" as="geometry" />
        </mxCell>
        <mxCell id="qwvhTkDCjMYnOOERRBJ3-1" value="" style="group;flipV=1;" vertex="1" connectable="0" parent="1">
          <mxGeometry x="1480" y="50" width="1380" height="930" as="geometry" />
        </mxCell>
        <mxCell id="761dnnyQ54j-Cl0NHfQN-17943" value="39" style="rounded=0;whiteSpace=wrap;html=1;fontSize=32;" parent="qwvhTkDCjMYnOOERRBJ3-1" vertex="1">
          <mxGeometry y="540" width="390" height="390" as="geometry" />
        </mxCell>
        <mxCell id="761dnnyQ54j-Cl0NHfQN-17944" value="22" style="rounded=0;whiteSpace=wrap;html=1;fontSize=32;" parent="qwvhTkDCjMYnOOERRBJ3-1" vertex="1">
          <mxGeometry x="390" y="710" width="220" height="220" as="geometry" />
        </mxCell>
        <mxCell id="761dnnyQ54j-Cl0NHfQN-17945" value="27" style="rounded=0;whiteSpace=wrap;html=1;fontSize=32;" parent="qwvhTkDCjMYnOOERRBJ3-1" vertex="1">
          <mxGeometry x="610" y="660" width="270" height="270" as="geometry" />
        </mxCell>
        <mxCell id="761dnnyQ54j-Cl0NHfQN-17946" value="17" style="rounded=0;whiteSpace=wrap;html=1;fontSize=32;" parent="qwvhTkDCjMYnOOERRBJ3-1" vertex="1">
          <mxGeometry x="390" y="540" width="170" height="170" as="geometry" />
        </mxCell>
        <mxCell id="761dnnyQ54j-Cl0NHfQN-17947" value="5" style="rounded=0;whiteSpace=wrap;html=1;fontSize=32;" parent="qwvhTkDCjMYnOOERRBJ3-1" vertex="1">
          <mxGeometry x="560" y="660" width="50" height="50" as="geometry" />
        </mxCell>
        <mxCell id="761dnnyQ54j-Cl0NHfQN-17948" value="21" style="rounded=0;whiteSpace=wrap;html=1;fontSize=32;" parent="qwvhTkDCjMYnOOERRBJ3-1" vertex="1">
          <mxGeometry x="880" y="720" width="210" height="210" as="geometry" />
        </mxCell>
        <mxCell id="761dnnyQ54j-Cl0NHfQN-17949" value="29" style="rounded=0;whiteSpace=wrap;html=1;fontSize=32;" parent="qwvhTkDCjMYnOOERRBJ3-1" vertex="1">
          <mxGeometry x="1090" y="640" width="290" height="290" as="geometry" />
        </mxCell>
        <mxCell id="761dnnyQ54j-Cl0NHfQN-17950" value="6" style="rounded=0;whiteSpace=wrap;html=1;fontSize=32;" parent="qwvhTkDCjMYnOOERRBJ3-1" vertex="1">
          <mxGeometry x="880" y="660" width="60" height="60" as="geometry" />
        </mxCell>
        <mxCell id="761dnnyQ54j-Cl0NHfQN-17951" value="15" style="rounded=0;whiteSpace=wrap;html=1;fontSize=32;" parent="qwvhTkDCjMYnOOERRBJ3-1" vertex="1">
          <mxGeometry x="940" y="570" width="150" height="150" as="geometry" />
        </mxCell>
        <mxCell id="761dnnyQ54j-Cl0NHfQN-17952" value="9" style="rounded=0;whiteSpace=wrap;html=1;fontSize=32;" parent="qwvhTkDCjMYnOOERRBJ3-1" vertex="1">
          <mxGeometry x="1090" y="550" width="90" height="90" as="geometry" />
        </mxCell>
        <mxCell id="761dnnyQ54j-Cl0NHfQN-17953" value="20" style="rounded=0;whiteSpace=wrap;html=1;fontSize=32;" parent="qwvhTkDCjMYnOOERRBJ3-1" vertex="1">
          <mxGeometry x="1180" y="440" width="200" height="200" as="geometry" />
        </mxCell>
        <mxCell id="761dnnyQ54j-Cl0NHfQN-17954" value="12" style="rounded=0;whiteSpace=wrap;html=1;fontSize=32;" parent="qwvhTkDCjMYnOOERRBJ3-1" vertex="1">
          <mxGeometry x="560" y="540" width="120" height="120" as="geometry" />
        </mxCell>
        <mxCell id="761dnnyQ54j-Cl0NHfQN-17955" value="26" style="rounded=0;whiteSpace=wrap;html=1;fontSize=32;" parent="qwvhTkDCjMYnOOERRBJ3-1" vertex="1">
          <mxGeometry x="680" y="400" width="260" height="260" as="geometry" />
        </mxCell>
        <mxCell id="761dnnyQ54j-Cl0NHfQN-17956" value="13" style="rounded=0;whiteSpace=wrap;html=1;fontSize=32;" parent="qwvhTkDCjMYnOOERRBJ3-1" vertex="1">
          <mxGeometry x="940" y="440" width="130" height="130" as="geometry" />
        </mxCell>
        <mxCell id="761dnnyQ54j-Cl0NHfQN-17957" value="2" style="rounded=0;whiteSpace=wrap;html=1;fontSize=32;" parent="qwvhTkDCjMYnOOERRBJ3-1" vertex="1">
          <mxGeometry x="1070" y="550" width="20" height="20" as="geometry" />
        </mxCell>
        <mxCell id="761dnnyQ54j-Cl0NHfQN-17958" value="11" style="rounded=0;whiteSpace=wrap;html=1;fontSize=32;" parent="qwvhTkDCjMYnOOERRBJ3-1" vertex="1">
          <mxGeometry x="1070" y="440" width="110" height="110" as="geometry" />
        </mxCell>
        <mxCell id="761dnnyQ54j-Cl0NHfQN-17959" value="44" style="rounded=0;whiteSpace=wrap;html=1;fontSize=32;" parent="qwvhTkDCjMYnOOERRBJ3-1" vertex="1">
          <mxGeometry x="940" width="440" height="440" as="geometry" />
        </mxCell>
        <mxCell id="761dnnyQ54j-Cl0NHfQN-17960" value="54" style="rounded=0;whiteSpace=wrap;html=1;fontSize=32;" parent="qwvhTkDCjMYnOOERRBJ3-1" vertex="1">
          <mxGeometry width="540" height="540" as="geometry" />
        </mxCell>
        <mxCell id="761dnnyQ54j-Cl0NHfQN-17961" value="14" style="rounded=0;whiteSpace=wrap;html=1;fontSize=32;" parent="qwvhTkDCjMYnOOERRBJ3-1" vertex="1">
          <mxGeometry x="540" y="400" width="140" height="140" as="geometry" />
        </mxCell>
        <mxCell id="761dnnyQ54j-Cl0NHfQN-17962" value="40" style="rounded=0;whiteSpace=wrap;html=1;fontSize=32;" parent="qwvhTkDCjMYnOOERRBJ3-1" vertex="1">
          <mxGeometry x="540" width="400" height="400" as="geometry" />
        </mxCell>
        <mxCell id="qwvhTkDCjMYnOOERRBJ3-2" value="" style="group;flipV=1;" vertex="1" connectable="0" parent="1">
          <mxGeometry x="1480" y="1060" width="1380" height="1120" as="geometry" />
        </mxCell>
        <mxCell id="761dnnyQ54j-Cl0NHfQN-41169" value="25" style="rounded=0;whiteSpace=wrap;html=1;fontSize=32;fillColor=#C3ABD0;strokeColor=#9673a6;" parent="qwvhTkDCjMYnOOERRBJ3-2" vertex="1">
          <mxGeometry y="870" width="250" height="250" as="geometry" />
        </mxCell>
        <mxCell id="761dnnyQ54j-Cl0NHfQN-41170" value="17" style="rounded=0;whiteSpace=wrap;html=1;fontSize=32;fillColor=#C3ABD0;strokeColor=#9673a6;" parent="qwvhTkDCjMYnOOERRBJ3-2" vertex="1">
          <mxGeometry x="250" y="950" width="170" height="170" as="geometry" />
        </mxCell>
        <mxCell id="761dnnyQ54j-Cl0NHfQN-41171" value="15" style="rounded=0;whiteSpace=wrap;html=1;fontSize=32;fillColor=#C3ABD0;strokeColor=#9673a6;" parent="qwvhTkDCjMYnOOERRBJ3-2" vertex="1">
          <mxGeometry x="420" y="970" width="150" height="150" as="geometry" />
        </mxCell>
        <mxCell id="761dnnyQ54j-Cl0NHfQN-41172" value="40" style="rounded=0;whiteSpace=wrap;html=1;fontSize=32;fillColor=#dae8fc;strokeColor=#6c8ebf;" parent="qwvhTkDCjMYnOOERRBJ3-2" vertex="1">
          <mxGeometry x="570" y="720" width="400" height="400" as="geometry" />
        </mxCell>
        <mxCell id="761dnnyQ54j-Cl0NHfQN-41173" value="2" style="rounded=0;whiteSpace=wrap;html=1;fontSize=32;fillColor=#C3ABD0;strokeColor=#9673a6;" parent="qwvhTkDCjMYnOOERRBJ3-2" vertex="1">
          <mxGeometry x="420" y="950" width="20" height="20" as="geometry" />
        </mxCell>
        <mxCell id="761dnnyQ54j-Cl0NHfQN-41174" value="13" style="rounded=0;whiteSpace=wrap;html=1;fontSize=32;fillColor=#C3ABD0;strokeColor=#9673a6;" parent="qwvhTkDCjMYnOOERRBJ3-2" vertex="1">
          <mxGeometry x="440" y="840" width="130" height="130" as="geometry" />
        </mxCell>
        <mxCell id="761dnnyQ54j-Cl0NHfQN-41175" value="8" style="rounded=0;whiteSpace=wrap;html=1;fontSize=32;fillColor=#C3ABD0;strokeColor=#9673a6;" parent="qwvhTkDCjMYnOOERRBJ3-2" vertex="1">
          <mxGeometry x="250" y="870" width="80" height="80" as="geometry" />
        </mxCell>
        <mxCell id="761dnnyQ54j-Cl0NHfQN-41176" value="11" style="rounded=0;whiteSpace=wrap;html=1;fontSize=32;fillColor=#C3ABD0;strokeColor=#9673a6;" parent="qwvhTkDCjMYnOOERRBJ3-2" vertex="1">
          <mxGeometry x="330" y="840" width="110" height="110" as="geometry" />
        </mxCell>
        <mxCell id="761dnnyQ54j-Cl0NHfQN-41177" value="30" style="rounded=0;whiteSpace=wrap;html=1;fontSize=32;fillColor=#C3ABD0;strokeColor=#9673a6;" parent="qwvhTkDCjMYnOOERRBJ3-2" vertex="1">
          <mxGeometry y="570" width="300" height="300" as="geometry" />
        </mxCell>
        <mxCell id="761dnnyQ54j-Cl0NHfQN-41178" value="3" style="rounded=0;whiteSpace=wrap;html=1;fontSize=32;fillColor=#C3ABD0;strokeColor=#9673a6;" parent="qwvhTkDCjMYnOOERRBJ3-2" vertex="1">
          <mxGeometry x="300" y="840" width="30" height="30" as="geometry" />
        </mxCell>
        <mxCell id="761dnnyQ54j-Cl0NHfQN-41179" value="27" style="rounded=0;whiteSpace=wrap;html=1;fontSize=32;fillColor=#C3ABD0;strokeColor=#9673a6;" parent="qwvhTkDCjMYnOOERRBJ3-2" vertex="1">
          <mxGeometry x="300" y="570" width="270" height="270" as="geometry" />
        </mxCell>
        <mxCell id="761dnnyQ54j-Cl0NHfQN-41180" value="41" style="rounded=0;whiteSpace=wrap;html=1;fontSize=32;fillColor=#dae8fc;strokeColor=#6c8ebf;" parent="qwvhTkDCjMYnOOERRBJ3-2" vertex="1">
          <mxGeometry x="970" y="710" width="410" height="410" as="geometry" />
        </mxCell>
        <mxCell id="761dnnyQ54j-Cl0NHfQN-41181" value="29" style="rounded=0;whiteSpace=wrap;html=1;fontSize=32;fillColor=#dae8fc;strokeColor=#6c8ebf;" parent="qwvhTkDCjMYnOOERRBJ3-2" vertex="1">
          <mxGeometry x="570" y="430" width="290" height="290" as="geometry" />
        </mxCell>
        <mxCell id="761dnnyQ54j-Cl0NHfQN-41182" value="10" style="rounded=0;whiteSpace=wrap;html=1;fontSize=32;fillColor=#dae8fc;strokeColor=#6c8ebf;" parent="qwvhTkDCjMYnOOERRBJ3-2" vertex="1">
          <mxGeometry x="860" y="620" width="100" height="100" as="geometry" />
        </mxCell>
        <mxCell id="761dnnyQ54j-Cl0NHfQN-41183" value="1" style="rounded=0;whiteSpace=wrap;html=1;fontSize=32;fillColor=#dae8fc;strokeColor=#6c8ebf;" parent="qwvhTkDCjMYnOOERRBJ3-2" vertex="1">
          <mxGeometry x="960" y="710" width="10" height="10" as="geometry" />
        </mxCell>
        <mxCell id="761dnnyQ54j-Cl0NHfQN-41184" value="9" style="rounded=0;whiteSpace=wrap;html=1;fontSize=32;fillColor=#dae8fc;strokeColor=#6c8ebf;" parent="qwvhTkDCjMYnOOERRBJ3-2" vertex="1">
          <mxGeometry x="960" y="620" width="90" height="90" as="geometry" />
        </mxCell>
        <mxCell id="761dnnyQ54j-Cl0NHfQN-41185" value="33" style="rounded=0;whiteSpace=wrap;html=1;fontSize=32;fillColor=#dae8fc;strokeColor=#6c8ebf;" parent="qwvhTkDCjMYnOOERRBJ3-2" vertex="1">
          <mxGeometry x="1050" y="380" width="330" height="330" as="geometry" />
        </mxCell>
        <mxCell id="761dnnyQ54j-Cl0NHfQN-41186" value="19" style="rounded=0;whiteSpace=wrap;html=1;fontSize=32;fillColor=#dae8fc;strokeColor=#6c8ebf;" parent="qwvhTkDCjMYnOOERRBJ3-2" vertex="1">
          <mxGeometry x="860" y="430" width="190" height="190" as="geometry" />
        </mxCell>
        <mxCell id="761dnnyQ54j-Cl0NHfQN-41187" value="57" style="rounded=0;whiteSpace=wrap;html=1;fontSize=32;fillColor=#e1d5e7;strokeColor=#9673a6;" parent="qwvhTkDCjMYnOOERRBJ3-2" vertex="1">
          <mxGeometry width="570" height="570" as="geometry" />
        </mxCell>
        <mxCell id="761dnnyQ54j-Cl0NHfQN-41188" value="43" style="rounded=0;whiteSpace=wrap;html=1;fontSize=32;fillColor=#dae8fc;strokeColor=#6c8ebf;" parent="qwvhTkDCjMYnOOERRBJ3-2" vertex="1">
          <mxGeometry x="570" width="430" height="430" as="geometry" />
        </mxCell>
        <mxCell id="761dnnyQ54j-Cl0NHfQN-41189" value="5" style="rounded=0;whiteSpace=wrap;html=1;fontSize=32;fillColor=#dae8fc;strokeColor=#6c8ebf;" parent="qwvhTkDCjMYnOOERRBJ3-2" vertex="1">
          <mxGeometry x="1000" y="380" width="50" height="50" as="geometry" />
        </mxCell>
        <mxCell id="761dnnyQ54j-Cl0NHfQN-41190" value="38" style="rounded=0;whiteSpace=wrap;html=1;fontSize=32;fillColor=#dae8fc;strokeColor=#6c8ebf;" parent="qwvhTkDCjMYnOOERRBJ3-2" vertex="1">
          <mxGeometry x="1000" width="380" height="380" as="geometry" />
        </mxCell>
        <mxCell id="qwvhTkDCjMYnOOERRBJ3-3" value="" style="group;flipV=1;" vertex="1" connectable="0" parent="1">
          <mxGeometry x="1490" y="2260" width="1380" height="1040" as="geometry" />
        </mxCell>
        <mxCell id="761dnnyQ54j-Cl0NHfQN-42549" value="34" style="rounded=0;whiteSpace=wrap;html=1;fontSize=32;" parent="qwvhTkDCjMYnOOERRBJ3-3" vertex="1">
          <mxGeometry y="700" width="340" height="340" as="geometry" />
        </mxCell>
        <mxCell id="761dnnyQ54j-Cl0NHfQN-42550" value="29" style="rounded=0;whiteSpace=wrap;html=1;fontSize=32;" parent="qwvhTkDCjMYnOOERRBJ3-3" vertex="1">
          <mxGeometry x="340" y="750" width="290" height="290" as="geometry" />
        </mxCell>
        <mxCell id="761dnnyQ54j-Cl0NHfQN-42551" value="45" style="rounded=0;whiteSpace=wrap;html=1;fontSize=32;" parent="qwvhTkDCjMYnOOERRBJ3-3" vertex="1">
          <mxGeometry x="630" y="590" width="450" height="450" as="geometry" />
        </mxCell>
        <mxCell id="761dnnyQ54j-Cl0NHfQN-42552" value="13" style="rounded=0;whiteSpace=wrap;html=1;fontSize=32;" parent="qwvhTkDCjMYnOOERRBJ3-3" vertex="1">
          <mxGeometry x="340" y="620" width="130" height="130" as="geometry" />
        </mxCell>
        <mxCell id="761dnnyQ54j-Cl0NHfQN-42553" value="16" style="rounded=0;whiteSpace=wrap;html=1;fontSize=32;" parent="qwvhTkDCjMYnOOERRBJ3-3" vertex="1">
          <mxGeometry x="470" y="590" width="160" height="160" as="geometry" />
        </mxCell>
        <mxCell id="761dnnyQ54j-Cl0NHfQN-42554" value="30" style="rounded=0;whiteSpace=wrap;html=1;fontSize=32;" parent="qwvhTkDCjMYnOOERRBJ3-3" vertex="1">
          <mxGeometry x="1080" y="740" width="300" height="300" as="geometry" />
        </mxCell>
        <mxCell id="761dnnyQ54j-Cl0NHfQN-42555" value="11" style="rounded=0;whiteSpace=wrap;html=1;fontSize=32;" parent="qwvhTkDCjMYnOOERRBJ3-3" vertex="1">
          <mxGeometry x="1080" y="630" width="110" height="110" as="geometry" />
        </mxCell>
        <mxCell id="761dnnyQ54j-Cl0NHfQN-42556" value="19" style="rounded=0;whiteSpace=wrap;html=1;fontSize=32;" parent="qwvhTkDCjMYnOOERRBJ3-3" vertex="1">
          <mxGeometry x="1190" y="550" width="190" height="190" as="geometry" />
        </mxCell>
        <mxCell id="761dnnyQ54j-Cl0NHfQN-42557" value="4" style="rounded=0;whiteSpace=wrap;html=1;fontSize=32;" parent="qwvhTkDCjMYnOOERRBJ3-3" vertex="1">
          <mxGeometry x="1080" y="590" width="40" height="40" as="geometry" />
        </mxCell>
        <mxCell id="761dnnyQ54j-Cl0NHfQN-42558" value="7" style="rounded=0;whiteSpace=wrap;html=1;fontSize=32;" parent="qwvhTkDCjMYnOOERRBJ3-3" vertex="1">
          <mxGeometry x="1120" y="560" width="70" height="70" as="geometry" />
        </mxCell>
        <mxCell id="761dnnyQ54j-Cl0NHfQN-42559" value="26" style="rounded=0;whiteSpace=wrap;html=1;fontSize=32;" parent="qwvhTkDCjMYnOOERRBJ3-3" vertex="1">
          <mxGeometry y="440" width="260" height="260" as="geometry" />
        </mxCell>
        <mxCell id="761dnnyQ54j-Cl0NHfQN-42560" value="8" style="rounded=0;whiteSpace=wrap;html=1;fontSize=32;" parent="qwvhTkDCjMYnOOERRBJ3-3" vertex="1">
          <mxGeometry x="260" y="620" width="80" height="80" as="geometry" />
        </mxCell>
        <mxCell id="761dnnyQ54j-Cl0NHfQN-42561" value="18" style="rounded=0;whiteSpace=wrap;html=1;fontSize=32;" parent="qwvhTkDCjMYnOOERRBJ3-3" vertex="1">
          <mxGeometry x="260" y="440" width="180" height="180" as="geometry" />
        </mxCell>
        <mxCell id="761dnnyQ54j-Cl0NHfQN-42562" value="3" style="rounded=0;whiteSpace=wrap;html=1;fontSize=32;" parent="qwvhTkDCjMYnOOERRBJ3-3" vertex="1">
          <mxGeometry x="440" y="590" width="30" height="30" as="geometry" />
        </mxCell>
        <mxCell id="761dnnyQ54j-Cl0NHfQN-42563" value="59" style="rounded=0;whiteSpace=wrap;html=1;fontSize=32;" parent="qwvhTkDCjMYnOOERRBJ3-3" vertex="1">
          <mxGeometry x="440" width="590" height="590" as="geometry" />
        </mxCell>
        <mxCell id="761dnnyQ54j-Cl0NHfQN-42564" value="9" style="rounded=0;whiteSpace=wrap;html=1;fontSize=32;" parent="qwvhTkDCjMYnOOERRBJ3-3" vertex="1">
          <mxGeometry x="1030" y="500" width="90" height="90" as="geometry" />
        </mxCell>
        <mxCell id="761dnnyQ54j-Cl0NHfQN-42565" value="6" style="rounded=0;whiteSpace=wrap;html=1;fontSize=32;" parent="qwvhTkDCjMYnOOERRBJ3-3" vertex="1">
          <mxGeometry x="1120" y="500" width="60" height="60" as="geometry" />
        </mxCell>
        <mxCell id="761dnnyQ54j-Cl0NHfQN-42566" value="1" style="rounded=0;whiteSpace=wrap;html=1;fontSize=32;" parent="qwvhTkDCjMYnOOERRBJ3-3" vertex="1">
          <mxGeometry x="1180" y="550" width="10" height="10" as="geometry" />
        </mxCell>
        <mxCell id="761dnnyQ54j-Cl0NHfQN-42567" value="20" style="rounded=0;whiteSpace=wrap;html=1;fontSize=32;" parent="qwvhTkDCjMYnOOERRBJ3-3" vertex="1">
          <mxGeometry x="1180" y="350" width="200" height="200" as="geometry" />
        </mxCell>
        <mxCell id="761dnnyQ54j-Cl0NHfQN-42568" value="15" style="rounded=0;whiteSpace=wrap;html=1;fontSize=32;" parent="qwvhTkDCjMYnOOERRBJ3-3" vertex="1">
          <mxGeometry x="1030" y="350" width="150" height="150" as="geometry" />
        </mxCell>
        <mxCell id="761dnnyQ54j-Cl0NHfQN-42569" value="35" style="rounded=0;whiteSpace=wrap;html=1;fontSize=32;" parent="qwvhTkDCjMYnOOERRBJ3-3" vertex="1">
          <mxGeometry x="1030" width="350" height="350" as="geometry" />
        </mxCell>
        <mxCell id="761dnnyQ54j-Cl0NHfQN-42570" value="44" style="rounded=0;whiteSpace=wrap;html=1;fontSize=32;" parent="qwvhTkDCjMYnOOERRBJ3-3" vertex="1">
          <mxGeometry width="440" height="440" as="geometry" />
        </mxCell>
        <mxCell id="qwvhTkDCjMYnOOERRBJ3-4" value="" style="group;flipV=1;" vertex="1" connectable="0" parent="1">
          <mxGeometry x="1490" y="3380" width="1380" height="1280" as="geometry" />
        </mxCell>
        <mxCell id="761dnnyQ54j-Cl0NHfQN-46326" value="36" style="rounded=0;whiteSpace=wrap;html=1;fontSize=32;" parent="qwvhTkDCjMYnOOERRBJ3-4" vertex="1">
          <mxGeometry y="920" width="360" height="360" as="geometry" />
        </mxCell>
        <mxCell id="761dnnyQ54j-Cl0NHfQN-46327" value="33" style="rounded=0;whiteSpace=wrap;html=1;fontSize=32;" parent="qwvhTkDCjMYnOOERRBJ3-4" vertex="1">
          <mxGeometry x="360" y="950" width="330" height="330" as="geometry" />
        </mxCell>
        <mxCell id="761dnnyQ54j-Cl0NHfQN-46328" value="30" style="rounded=0;whiteSpace=wrap;html=1;fontSize=32;" parent="qwvhTkDCjMYnOOERRBJ3-4" vertex="1">
          <mxGeometry x="690" y="980" width="300" height="300" as="geometry" />
        </mxCell>
        <mxCell id="761dnnyQ54j-Cl0NHfQN-46329" value="39" style="rounded=0;whiteSpace=wrap;html=1;fontSize=32;" parent="qwvhTkDCjMYnOOERRBJ3-4" vertex="1">
          <mxGeometry x="990" y="890" width="390" height="390" as="geometry" />
        </mxCell>
        <mxCell id="761dnnyQ54j-Cl0NHfQN-46330" value="21" style="rounded=0;whiteSpace=wrap;html=1;fontSize=32;" parent="qwvhTkDCjMYnOOERRBJ3-4" vertex="1">
          <mxGeometry x="690" y="770" width="210" height="210" as="geometry" />
        </mxCell>
        <mxCell id="761dnnyQ54j-Cl0NHfQN-46331" value="9" style="rounded=0;whiteSpace=wrap;html=1;fontSize=32;" parent="qwvhTkDCjMYnOOERRBJ3-4" vertex="1">
          <mxGeometry x="900" y="890" width="90" height="90" as="geometry" />
        </mxCell>
        <mxCell id="761dnnyQ54j-Cl0NHfQN-46332" value="3" style="rounded=0;whiteSpace=wrap;html=1;fontSize=32;" parent="qwvhTkDCjMYnOOERRBJ3-4" vertex="1">
          <mxGeometry x="360" y="920" width="30" height="30" as="geometry" />
        </mxCell>
        <mxCell id="761dnnyQ54j-Cl0NHfQN-46333" value="13" style="rounded=0;whiteSpace=wrap;html=1;fontSize=32;" parent="qwvhTkDCjMYnOOERRBJ3-4" vertex="1">
          <mxGeometry x="390" y="820" width="130" height="130" as="geometry" />
        </mxCell>
        <mxCell id="761dnnyQ54j-Cl0NHfQN-46334" value="17" style="rounded=0;whiteSpace=wrap;html=1;fontSize=32;" parent="qwvhTkDCjMYnOOERRBJ3-4" vertex="1">
          <mxGeometry x="520" y="780" width="170" height="170" as="geometry" />
        </mxCell>
        <mxCell id="761dnnyQ54j-Cl0NHfQN-46335" value="29" style="rounded=0;whiteSpace=wrap;html=1;fontSize=32;" parent="qwvhTkDCjMYnOOERRBJ3-4" vertex="1">
          <mxGeometry y="630" width="290" height="290" as="geometry" />
        </mxCell>
        <mxCell id="761dnnyQ54j-Cl0NHfQN-46336" value="10" style="rounded=0;whiteSpace=wrap;html=1;fontSize=32;" parent="qwvhTkDCjMYnOOERRBJ3-4" vertex="1">
          <mxGeometry x="290" y="820" width="100" height="100" as="geometry" />
        </mxCell>
        <mxCell id="761dnnyQ54j-Cl0NHfQN-46337" value="19" style="rounded=0;whiteSpace=wrap;html=1;fontSize=32;" parent="qwvhTkDCjMYnOOERRBJ3-4" vertex="1">
          <mxGeometry x="290" y="630" width="190" height="190" as="geometry" />
        </mxCell>
        <mxCell id="761dnnyQ54j-Cl0NHfQN-46338" value="4" style="rounded=0;whiteSpace=wrap;html=1;fontSize=32;" parent="qwvhTkDCjMYnOOERRBJ3-4" vertex="1">
          <mxGeometry x="480" y="780" width="40" height="40" as="geometry" />
        </mxCell>
        <mxCell id="761dnnyQ54j-Cl0NHfQN-46339" value="15" style="rounded=0;whiteSpace=wrap;html=1;fontSize=32;" parent="qwvhTkDCjMYnOOERRBJ3-4" vertex="1">
          <mxGeometry x="480" y="630" width="150" height="150" as="geometry" />
        </mxCell>
        <mxCell id="761dnnyQ54j-Cl0NHfQN-46340" value="6" style="rounded=0;whiteSpace=wrap;html=1;fontSize=32;" parent="qwvhTkDCjMYnOOERRBJ3-4" vertex="1">
          <mxGeometry x="630" y="720" width="60" height="60" as="geometry" />
        </mxCell>
        <mxCell id="761dnnyQ54j-Cl0NHfQN-46341" value="48" style="rounded=0;whiteSpace=wrap;html=1;fontSize=32;" parent="qwvhTkDCjMYnOOERRBJ3-4" vertex="1">
          <mxGeometry x="900" y="410" width="480" height="480" as="geometry" />
        </mxCell>
        <mxCell id="761dnnyQ54j-Cl0NHfQN-46342" value="5" style="rounded=0;whiteSpace=wrap;html=1;fontSize=32;" parent="qwvhTkDCjMYnOOERRBJ3-4" vertex="1">
          <mxGeometry x="690" y="720" width="50" height="50" as="geometry" />
        </mxCell>
        <mxCell id="761dnnyQ54j-Cl0NHfQN-46343" value="16" style="rounded=0;whiteSpace=wrap;html=1;fontSize=32;flipV=1;" parent="qwvhTkDCjMYnOOERRBJ3-4" vertex="1">
          <mxGeometry x="740" y="610" width="160" height="160" as="geometry" />
        </mxCell>
        <mxCell id="761dnnyQ54j-Cl0NHfQN-46344" value="11" style="rounded=0;whiteSpace=wrap;html=1;fontSize=32;" parent="qwvhTkDCjMYnOOERRBJ3-4" vertex="1">
          <mxGeometry x="630" y="610" width="110" height="110" as="geometry" />
        </mxCell>
        <mxCell id="761dnnyQ54j-Cl0NHfQN-46345" value="63" style="rounded=0;whiteSpace=wrap;html=1;fontSize=32;" parent="qwvhTkDCjMYnOOERRBJ3-4" vertex="1">
          <mxGeometry width="630" height="630" as="geometry" />
        </mxCell>
        <mxCell id="761dnnyQ54j-Cl0NHfQN-46346" value="27" style="rounded=0;whiteSpace=wrap;html=1;fontSize=32;" parent="qwvhTkDCjMYnOOERRBJ3-4" vertex="1">
          <mxGeometry x="630" y="340" width="270" height="270" as="geometry" />
        </mxCell>
        <mxCell id="761dnnyQ54j-Cl0NHfQN-46347" value="7" style="rounded=0;whiteSpace=wrap;html=1;fontSize=32;" parent="qwvhTkDCjMYnOOERRBJ3-4" vertex="1">
          <mxGeometry x="900" y="340" width="70" height="70" as="geometry" />
        </mxCell>
        <mxCell id="761dnnyQ54j-Cl0NHfQN-46348" value="41" style="rounded=0;whiteSpace=wrap;html=1;fontSize=32;" parent="qwvhTkDCjMYnOOERRBJ3-4" vertex="1">
          <mxGeometry x="970" width="410" height="410" as="geometry" />
        </mxCell>
        <mxCell id="761dnnyQ54j-Cl0NHfQN-46349" value="34" style="rounded=0;whiteSpace=wrap;html=1;fontSize=32;" parent="qwvhTkDCjMYnOOERRBJ3-4" vertex="1">
          <mxGeometry x="630" width="340" height="340" as="geometry" />
        </mxCell>
      </root>
    </mxGraphModel>
  </diagram>
</mxfile>
